<svg width="3863" height="1000" viewBox="0 0 3863 1000" fill="none" xmlns="http://www.w3.org/2000/svg">
<path d="M1000 500C1000 776.142 776.142 1000 500 1000C223.858 1000 0 776.142 0 500C0 223.858 223.858 0 500 0C776.142 0 1000 223.858 1000 500Z" fill="#0090FF"/>
<path d="M833 217C833 244.614 810.614 267 783 267C755.386 267 733 244.614 733 217C733 189.386 755.386 167 783 167C810.614 167 833 189.386 833 217Z" fill="white"/>
<path d="M500 75C543.661 75 585.783 81.5857 625.43 93.8145C614.846 107.333 605.967 122.248 599.109 138.237C567.539 129.608 534.308 125 500 125C292.893 125 125 292.893 125 500C125 707.107 292.893 875 500 875C707.107 875 875 707.107 875 500C875 465.692 870.391 432.461 861.762 400.89C877.751 394.032 892.666 385.153 906.185 374.569C918.414 414.216 925 456.339 925 500C925 734.721 734.721 925 500 925C265.279 925 75 734.721 75 500C75 265.279 265.279 75 500 75Z" fill="white"/>
<path d="M650 500C650 582.843 582.843 650 500 650C417.157 650 350 582.843 350 500C350 417.157 417.157 350 500 350C582.843 350 650 417.157 650 500Z" fill="white"/>
<path d="M3639.1 818.999C3497.61 818.999 3415.29 718.668 3415.29 585.751C3415.29 452.834 3497.61 352.504 3639.1 352.504C3779.73 352.504 3862.06 448.547 3862.06 596.041V621.767H3530.19C3539.63 687.797 3577.36 728.958 3639.1 728.958C3689.69 728.958 3723.14 708.378 3741.15 671.504H3854.34C3825.18 759.829 3748.01 818.999 3639.1 818.999ZM3531.91 541.16H3745.43C3734.28 480.275 3697.41 442.544 3639.1 442.544C3579.93 442.544 3543.06 480.275 3531.91 541.16Z" fill="black"/>
<path d="M3244.41 544.59C3244.41 493.138 3222.97 453.692 3162.94 453.692C3121.78 453.692 3065.18 480.275 3065.18 564.313H3064.33V808.708H2947.7V362.794H3060.9V424.536C3091.77 383.375 3138.07 352.504 3202.39 352.504C3302.72 352.504 3361.03 419.391 3361.03 530.869V808.708H3244.41V544.59Z" fill="black"/>
<path d="M2576.87 819C2375.35 819 2268.16 674.078 2268.16 500C2268.16 325.922 2375.35 181 2576.87 181C2778.39 181 2884.73 325.922 2884.73 500C2884.73 674.078 2778.39 819 2576.87 819ZM2398.51 500C2398.51 612.336 2451.67 707.521 2576.87 707.521C2702.07 707.521 2754.38 612.336 2754.38 500C2754.38 387.664 2702.07 292.479 2576.87 292.479C2451.67 292.479 2398.51 387.664 2398.51 500Z" fill="black"/>
<path d="M1949.42 191.289H2021.45V698.945C2021.45 731.531 2035.17 745.251 2067.76 745.251H2127.79V808.708H2054.04C1976.86 808.708 1949.42 776.122 1949.42 707.52V191.289Z" fill="black"/>
<path d="M1787.86 808.708V362.794H1859.89V808.708H1787.86ZM1787.86 278.757V191.289H1859.89V278.757H1787.86Z" fill="black"/>
<path d="M1304 808.708V191.289H1717.33V259.891H1379.46V451.977H1700.18V520.579H1379.46V808.708H1304Z" fill="black"/>
</svg>
